<svg xmlns="http://www.w3.org/2000/svg" version="1.1" xmlns:xlink="http://www.w3.org/1999/xlink" xmlns:svgjs="http://svgjs.dev/svgjs" width="2000" height="398" viewBox="0 0 2000 398"><g transform="matrix(1,0,0,1,-1.2121212121212466,0.13376086998380288)"><svg viewBox="0 0 396 79" data-background-color="#ffffff" preserveAspectRatio="xMidYMid meet" height="398" width="2000" xmlns="http://www.w3.org/2000/svg" xmlns:xlink="http://www.w3.org/1999/xlink"><g id="tight-bounds" transform="matrix(1,0,0,1,0.2400000000000091,-0.026550524444019175)"><svg viewBox="0 0 395.52 79.05310104888805" height="79.05310104888805" width="395.52"><g><svg viewBox="0 0 516.3539013572295 103.20433136372532" height="79.05310104888805" width="395.52"><g transform="matrix(1,0,0,1,0,14.263406143611824)"><svg viewBox="0 0 395.52 74.67751907650167" height="74.67751907650167" width="395.52"><g id="textblocktransform"><svg viewBox="0 0 395.52 74.67751907650167" height="74.67751907650167" width="395.52" id="textblock"><g><svg viewBox="0 0 395.52 74.67751907650167" height="74.67751907650167" width="395.52"><g transform="matrix(1,0,0,1,0,0)"><svg width="395.52" viewBox="4.2 -38.8 255.52000000000004 48.25" height="74.67751907650167" data-palette-color="#ffffff"><path d="M10.4 0L4.2 0 4.2-35.45 4.7-35.45 18.8-18.82 32.8-35.45 33.35-35.45 33.35 0 27.15 0 27.15-14.95 27.38-20.85 25.6-18.15 18.75-10.1 11.9-18.15 10.13-20.85 10.4-14.95 10.4 0ZM48.7 9.45L42.55 9.45 46.6-1.7 37.25-24.9 44.2-24.9 47.9-13.8 49.5-8.05 51.1-13.8 54.85-24.9 61.4-24.9 48.7 9.45ZM81.34 0L74.89 0 74.89-34.85 84.24-34.85Q87.79-34.85 90.69-33.77 93.59-32.7 95.32-30.04 97.04-27.38 97.04-22.65L97.04-22.65Q97.04-19.23 95.74-16.19 94.44-13.15 91.66-11.25 88.87-9.35 84.44-9.35L84.44-9.35 81.34-9.35 81.34 0ZM83.84-29.8L83.84-29.8 81.34-29.8 81.34-14.6 83.99-14.6Q87.29-14.6 88.94-16.57 90.59-18.55 90.59-22.3L90.59-22.3Q90.59-26.13 89.09-27.96 87.59-29.8 83.84-29.8ZM111.64 0.5L111.64 0.5Q106.14 0.5 103.14-2.95 100.14-6.4 100.14-12.5L100.14-12.5Q100.14-18.65 103.24-22.08 106.34-25.5 111.84-25.5L111.84-25.5Q117.37-25.5 120.25-21.96 123.14-18.43 123.14-12.5L123.14-12.5Q123.14-6.58 120.15-3.04 117.17 0.5 111.64 0.5ZM111.74-4.5L111.74-4.5Q116.49-4.5 116.49-12.5L116.49-12.5Q116.49-20.55 111.74-20.55L111.74-20.55Q109.39-20.55 108.09-18.69 106.79-16.82 106.79-12.5L106.79-12.5Q106.79-8.2 108.09-6.35 109.39-4.5 111.74-4.5ZM134.94 0L128.69 0 128.69-24.9 134.34-24.9 134.64-20.5Q135.04-21.48 135.88-22.58 136.71-23.68 138.2-24.44 139.69-25.2 142.04-25.2L142.04-25.2Q142.76-25.2 143.31-25.1 143.86-25 144.34-24.8L144.34-24.8 142.94-18.25Q142.14-19.05 140.49-19.05L140.49-19.05Q138.56-19.05 137.34-18.26 136.11-17.48 135.53-16.5 134.94-15.53 134.94-15L134.94-15 134.94 0ZM156.24 0.75L156.24 0.75Q152.01 0.75 150.52-1.45 149.04-3.65 149.04-8.1L149.04-8.1 149.04-19.65 145.79-19.65 145.79-24.9 149.29-24.9 149.64-30.15 155.09-32.5 155.09-24.9 161.24-24.9 161.24-19.65 155.09-19.65 155.09-8.25Q155.09-6.08 155.7-5.24 156.31-4.4 157.39-4.4L157.39-4.4Q158.49-4.4 159.71-4.98 160.94-5.55 161.64-6.15L161.64-6.15 162.84-1.1Q162.06-0.55 160.82-0.14 159.59 0.28 158.32 0.51 157.06 0.75 156.24 0.75ZM173.88 0L167.83 0 167.83-19.65 164.48-19.65 164.48-24.9 167.83-24.9 167.83-29.5Q167.83-32.4 168.67-34.23 169.51-36.05 170.81-37.04 172.11-38.02 173.57-38.41 175.03-38.8 176.28-38.8L176.28-38.8Q178.73-38.8 179.97-38.36 181.21-37.93 181.43-37.7L181.43-37.7 181.43-32.25Q180.88-32.98 179.76-33.31 178.63-33.65 177.83-33.65L177.83-33.65Q176.91-33.65 176-33.35 175.08-33.05 174.48-32.19 173.88-31.33 173.88-29.65L173.88-29.65 173.88-24.9 179.93-24.9 179.93-19.65 173.88-19.65 173.88 0ZM193.33 0.5L193.33 0.5Q187.83 0.5 184.83-2.95 181.83-6.4 181.83-12.5L181.83-12.5Q181.83-18.65 184.93-22.08 188.03-25.5 193.53-25.5L193.53-25.5Q199.06-25.5 201.94-21.96 204.83-18.43 204.83-12.5L204.83-12.5Q204.83-6.58 201.84-3.04 198.86 0.5 193.33 0.5ZM193.43-4.5L193.43-4.5Q198.18-4.5 198.18-12.5L198.18-12.5Q198.18-20.55 193.43-20.55L193.43-20.55Q191.08-20.55 189.78-18.69 188.48-16.82 188.48-12.5L188.48-12.5Q188.48-8.2 189.78-6.35 191.08-4.5 193.43-4.5ZM216.83 0L210.73 0 210.73-38 216.83-38 216.83 0ZM231.13-28.95L224.13-28.95 224.13-35.6 231.13-35.6 231.13-28.95ZM230.88 0L224.38 0 224.38-24.9 230.88-24.9 230.88 0ZM248.22 0.5L248.22 0.5Q242.72 0.5 239.72-2.95 236.72-6.4 236.72-12.5L236.72-12.5Q236.72-18.65 239.82-22.08 242.92-25.5 248.42-25.5L248.42-25.5Q253.95-25.5 256.83-21.96 259.72-18.43 259.72-12.5L259.72-12.5Q259.72-6.58 256.74-3.04 253.75 0.5 248.22 0.5ZM248.32-4.5L248.32-4.5Q253.07-4.5 253.07-12.5L253.07-12.5Q253.07-20.55 248.32-20.55L248.32-20.55Q245.97-20.55 244.67-18.69 243.37-16.82 243.37-12.5L243.37-12.5Q243.37-8.2 244.67-6.35 245.97-4.5 248.32-4.5Z" opacity="1" transform="matrix(1,0,0,1,0,0)" fill="#ffffff" class="wordmark-text-0" data-fill-palette-color="primary" id="text-0"></path></svg></g></svg></g></svg></g></svg></g><g transform="matrix(1,0,0,1,413.1495699935042,0)"><svg viewBox="0 0 103.20433136372532 103.20433136372532" height="103.20433136372532" width="103.20433136372532"><g data-palette-color="#f8f8f8"><rect width="28.209183906084917" height="103.20433136372532" fill="#ffffff" stroke="transparent" data-fill-palette-color="accent" x="0" fill-opacity="1"></rect><rect width="28.209183906084917" height="103.20433136372532" fill="#ffffff" stroke="transparent" data-fill-palette-color="accent" x="34.401443787908434" fill-opacity="0.75"></rect><rect width="28.209183906084917" height="103.20433136372532" fill="#ffffff" stroke="transparent" data-fill-palette-color="accent" x="68.80288757581687" fill-opacity="0.5"></rect></g></svg></g></svg></g><defs></defs></svg><rect width="395.52" height="79.05310104888805" fill="none" stroke="none" visibility="hidden"></rect></g></svg></g></svg>